<svg width="512" height="512" viewBox="0 0 512 512" fill="none" xmlns="http://www.w3.org/2000/svg">
<path d="M262.028 405L281 493H160L196.518 405H262.028Z" fill="#141414" stroke="#101010" stroke-width="7"/>
<path d="M137.459 18H340L303.51 106.441H227.824L202.965 221.051H256.224L219.871 309.161H183.817L150.449 465.239L138.994 493H35L137.459 18Z" fill="#575C61" stroke="#141414" stroke-width="6"/>
<path d="M401.323 381.407C401.243 381.567 401.098 381.819 400.86 382.08L399.214 381.274L401.208 380.848C401.359 380.816 401.472 380.792 401.556 380.774C401.52 380.92 401.453 381.148 401.323 381.407ZM307.316 493.628L307.824 496H310.249H333.097H333.211L333.324 495.991C357.512 494.161 379.202 489.331 394.166 479.335C401.701 474.301 407.587 467.919 411.167 459.923C414.747 451.927 415.927 442.529 414.388 431.616L414.367 431.468L414.331 431.322L395.706 355.241C395.706 355.238 395.705 355.236 395.705 355.234C390.714 334.421 383.181 317.54 372.991 304.743C364.786 294.44 355.178 286.752 344.175 281.743C360.664 278.834 376.267 274.137 390.976 267.644C408.486 260.015 423.763 250.123 436.779 237.956C449.819 225.767 460.113 211.43 467.655 194.969L467.658 194.962L467.661 194.955C475.238 178.19 479 159.553 479 139.094C479 122.627 476.141 106.922 470.413 92.0013C464.642 76.969 455.413 63.7813 442.784 52.4501C430.103 40.8515 413.715 31.8397 393.731 25.3401C385.98 22.7335 377.623 20.6376 368.666 19.0463L366.288 18.6238L365.368 20.8564L330.604 105.171L329.56 107.702L331.986 108.972C335.799 110.968 339.157 113.35 342.075 116.112L342.087 116.123L342.099 116.134C352.312 125.594 357.578 138.954 357.578 156.641C357.578 165.923 355.657 174.888 351.798 183.561L351.791 183.578L351.784 183.594C348.175 191.971 342.646 199.443 335.136 206.011C327.656 212.332 318.062 217.57 306.268 221.666C299.122 224.015 291.12 225.66 282.247 226.584L280.467 226.77L279.784 228.425L244.227 314.665L243.085 317.433L245.851 318.58C251.559 320.945 256.537 324.279 260.809 328.588L260.821 328.599L260.833 328.611C270.333 337.985 277.184 352.146 281.139 371.44L281.142 371.453L281.144 371.466L307.316 493.628Z" fill="#BF9B1A" stroke="#141414" stroke-width="6"/>
</svg>